<svg width="108" height="80" viewBox="0 0 108 80" fill="none" xmlns="http://www.w3.org/2000/svg">
<path d="M35.7463 33.1271C35.7668 33.1924 35.8014 33.2617 35.8187 33.3283C35.8187 33.3328 35.8187 33.3354 35.8174 33.3372C35.7321 33.5122 34.7585 33.0521 35.1143 32.9739C35.1605 32.9637 35.2155 32.9783 35.2631 32.9739C35.4079 32.9623 35.5553 32.9694 35.7015 32.9726C35.7161 33.0245 35.7303 33.0752 35.7463 33.1276V33.1271Z" fill="#0E73BA"/>
<path d="M42.4219 32.9739H43.2943C42.9487 33.3212 42.6014 33.6668 42.2554 34.0141C42.2887 33.6641 42.3438 33.3168 42.4219 32.9739Z" fill="#0E73BA"/>
<path d="M56.3296 32.9926C56.3655 33.192 56.37 33.3341 56.3224 33.3657C56.4051 33.3106 55.3892 32.9997 56.3051 32.9926H56.3296Z" fill="#0E73BA"/>
<path d="M61.6591 33.0418C61.6795 33.0418 61.7212 33.0361 61.7634 33.0316C61.4263 33.1142 61.075 33.9835 61.0514 33.7219C61.0341 33.518 61.0745 33.2821 61.1283 33.0449H61.1327C61.3091 33.0481 61.4841 33.0418 61.6595 33.0418H61.6591Z" fill="#0E73BA"/>
<path d="M72.6893 16.4142C69.7133 9.93548 64.6555 4.6378 58.0293 1.8888C54.2778 0.331973 50.1603 -0.321852 46.1165 0.151194C45.4787 0.226259 44.8924 0.758825 45.114 1.46773C45.5005 2.70742 45.7421 3.96488 45.7248 5.26675C45.7119 6.2999 45.492 7.27931 45.2486 8.26449C45.1864 8.52078 45.1229 8.77529 45.059 9.03291C44.9346 9.54371 44.8218 10.0603 44.7321 10.5795C44.4123 12.4415 44.3963 14.3337 45.2122 16.102C45.9629 17.7281 47.3998 18.8234 49.049 19.4337C50.9616 20.1426 52.9973 19.9996 54.9823 20.2976C56.2828 20.4944 57.5691 20.8098 58.8075 21.2526C60.0259 21.6866 61.2816 22.2 62.1886 23.1448C62.8051 23.7871 63.987 23.3082 63.9639 22.4097C63.8325 17.4776 61.7013 12.6587 57.4723 9.9186C54.5066 7.9971 50.9345 7.39524 47.4797 7.83542C47.6592 6.99193 47.7924 6.14267 47.804 5.26764C47.8186 4.20873 47.684 3.14937 47.4451 2.118C53.3117 1.8013 59.2073 3.89337 63.6877 7.6995C66.0413 9.69873 67.9802 12.1412 69.5237 14.8116C71.0414 17.4389 72.3824 20.4238 72.8137 23.4504C73.0393 25.0374 73.0104 26.8417 72.2322 28.2839C72.1527 28.4314 72.063 28.5673 71.9617 28.6921C71.8143 28.8818 71.645 29.0434 71.4567 29.178C70.7118 29.719 69.7018 29.8332 68.6762 29.5471C68.4532 29.4849 68.2524 29.4934 68.0801 29.5516C67.4782 29.7528 67.2122 30.5572 67.5173 31.0968C67.6315 31.3025 67.83 31.47 68.1236 31.5526C71.6521 32.5391 74.4096 29.8887 74.8786 26.6742C75.3952 23.1412 74.1466 19.5852 72.6897 16.4151L72.6893 16.4142ZM54.8854 10.8674C58.7062 12.6267 60.9791 16.2103 61.6662 20.1977C60.4061 19.5132 58.9781 19.0664 57.6571 18.7261C56.5373 18.437 55.3945 18.2486 54.2458 18.1243C53.2633 18.0186 52.2653 18.0346 51.2885 17.8711C49.7899 17.6193 48.2126 17.0436 47.3589 15.704C46.2622 13.985 46.5283 11.8992 46.9667 9.99633C49.6317 9.50729 52.4136 9.73027 54.885 10.8674H54.8854Z" fill="#0E73BA"/>
<path d="M68.8904 24.3587C67.4046 24.0113 66.3399 25.4887 66.3399 26.8718C66.3413 28.0364 67.0751 29.058 68.0802 29.5511C67.4784 29.7523 67.2123 30.5567 67.5175 31.0964C67.4757 31.0777 67.4335 31.0586 67.3918 31.0386C65.9202 30.331 64.9221 28.9061 64.7542 27.3133C64.4922 27.9107 64.2261 28.5055 64.0498 29.1336C63.6767 30.4705 63.4941 31.8492 63.2485 33.2133C63.1677 33.6677 63.1574 34.262 62.8678 34.644C62.3686 35.3036 61.2835 35.1344 60.5572 35.1086C59.4677 35.0695 58.3786 35.0611 57.2877 35.0668C56.5859 35.0699 55.686 35.2316 55.0379 34.8918C54.3943 34.552 54.329 33.9067 54.2046 33.2684C53.947 31.9545 53.5375 30.6251 52.5017 29.715C51.6613 28.9759 50.5122 28.6472 49.4058 28.7209C46.7567 28.9004 44.5749 31.4597 44.3351 34.0146C44.2813 34.576 43.8953 35.0535 43.2948 35.0535H39.1094C37.7724 35.0535 36.3968 35.1503 35.0629 35.0535C34.0822 34.9842 33.8188 34.0106 33.6105 33.2102C33.3875 32.352 33.2227 31.4784 33.065 30.6073C32.624 28.1608 32.4299 25.6828 32.7164 23.2056C33.0579 20.2616 33.9547 17.3594 35.6448 14.8982C37.2549 12.5543 39.486 10.6634 42.0498 9.43529C43.0696 8.94626 44.1463 8.55405 45.2501 8.26489C45.1879 8.52118 45.1244 8.7757 45.0604 9.03332C44.9361 9.54412 44.8232 10.0607 44.7335 10.5799C43.449 11.017 42.2235 11.6202 41.1139 12.3593C36.6073 15.3628 34.6165 20.6045 34.6556 25.8733C34.6703 27.7384 34.9523 29.564 35.3268 31.3855C35.4134 31.811 35.5062 32.2361 35.6159 32.6572C35.6435 32.7629 35.6723 32.8686 35.7025 32.9726C35.5564 32.9694 35.4089 32.9623 35.2641 32.9739C35.2166 32.9783 35.1615 32.9637 35.1154 32.9739C34.7596 33.0521 35.7332 33.5122 35.8185 33.3372C35.8198 33.3359 35.8198 33.3328 35.8198 33.3283C35.8243 33.3412 35.8269 33.3545 35.8287 33.3674C35.8229 33.3341 35.8198 33.3137 35.8185 33.3039C35.8198 33.311 35.8198 33.3212 35.8198 33.3283C35.8025 33.2617 35.7678 33.1924 35.7474 33.1271C35.7314 33.0752 35.7172 33.0245 35.7025 32.9721C35.7403 32.9734 35.7776 32.9734 35.814 32.9734H42.4229C42.3447 33.3163 42.2897 33.6637 42.2563 34.0137C42.6019 33.6664 42.9493 33.3208 43.2953 32.9734H42.4229C43.0523 30.1667 45.1253 27.6784 47.9511 26.8811C50.4874 26.1665 53.2506 27.0664 54.8145 29.1917C55.2311 29.7576 55.5247 30.3941 55.7637 31.0524C55.8272 31.2216 56.2239 32.3805 56.3309 32.9925H56.3065C55.3906 32.9997 56.4064 33.311 56.3238 33.3657C56.3713 33.3337 56.3673 33.192 56.3309 32.9925C56.5552 32.9912 56.7822 32.9894 57.0078 32.9881C57.3809 32.985 57.7558 32.9837 58.1307 32.9837C58.7339 32.9837 59.3389 32.9805 59.9421 33.0023C60.3383 33.017 60.7349 33.0383 61.1298 33.0441C61.076 33.2813 61.0356 33.5171 61.0529 33.721C61.076 33.9831 61.4278 33.1134 61.7649 33.0307C61.804 33.0263 61.84 33.0236 61.8618 33.0294C61.8298 33.0205 61.7983 33.0223 61.7649 33.0307C61.7232 33.0352 61.681 33.041 61.6606 33.041C61.4856 33.041 61.3106 33.0467 61.1338 33.0441H61.1293C61.1915 32.7807 61.271 32.5146 61.3101 32.2916C61.8471 29.2282 62.7173 25.9804 65.2486 23.9465C66.3555 23.0568 67.887 22.3226 69.3226 22.769C70.3211 23.0795 69.9071 24.5963 68.8913 24.3573L68.8904 24.3587Z" fill="#0E73BA"/>
<path d="M35.8198 33.3283C35.8198 33.3328 35.8198 33.3359 35.8185 33.3372C35.7332 33.5122 34.7596 33.0521 35.1154 32.9739C35.1615 32.9637 35.2166 32.9783 35.2641 32.9739C35.4089 32.9623 35.5564 32.9694 35.7025 32.9726C35.6723 32.8686 35.6435 32.7629 35.6159 32.6572C35.5062 32.2361 35.4134 31.811 35.3268 31.3855C34.9523 29.564 34.6703 27.7384 34.6556 25.8733C34.6165 20.6045 36.6073 15.3628 41.1139 12.3593C42.2235 11.6202 43.449 11.017 44.7335 10.5799C44.8232 10.0607 44.9361 9.54412 45.0604 9.03332C45.1244 8.7757 45.1879 8.52118 45.2501 8.26489C44.1463 8.55405 43.0696 8.94626 42.0498 9.43529C39.486 10.6634 37.2549 12.5543 35.6448 14.8982C33.9547 17.3594 33.0579 20.2616 32.7164 23.2056C32.4299 25.6828 32.624 28.1608 33.065 30.6073C33.2227 31.4784 33.3875 32.352 33.6105 33.2102C33.8188 34.0106 34.0822 34.9842 35.0629 35.0535C36.3968 35.1503 37.7724 35.0535 39.1094 35.0535H43.2948C43.8953 35.0535 44.2813 34.576 44.3351 34.0146C44.5749 31.4597 46.7567 28.9004 49.4058 28.7209C50.5122 28.6472 51.6613 28.9759 52.5017 29.715C53.5375 30.6251 53.947 31.9545 54.2046 33.2684C54.329 33.9067 54.3943 34.552 55.0379 34.8918C55.686 35.2316 56.5859 35.0699 57.2877 35.0668C58.3786 35.0611 59.4677 35.0695 60.5572 35.1086C61.2835 35.1344 62.3686 35.3036 62.8678 34.644C63.1574 34.262 63.1677 33.6677 63.2485 33.2133C63.4941 31.8492 63.6767 30.4705 64.0498 29.1336C64.2261 28.5055 64.4922 27.9107 64.7542 27.3133C64.9221 28.9061 65.9202 30.331 67.3917 31.0386C67.4335 31.0586 67.4757 31.0777 67.5175 31.0964C67.2123 30.5567 67.4784 29.7523 68.0802 29.5511C67.0751 29.058 66.3413 28.0364 66.3399 26.8718C66.3399 25.4887 67.4046 24.0113 68.8904 24.3587L68.8913 24.3573C69.9071 24.5963 70.3211 23.0795 69.3226 22.769C67.887 22.3226 66.3555 23.0568 65.2486 23.9465C62.7173 25.9804 61.8471 29.2282 61.3101 32.2916C61.271 32.5146 61.1915 32.7807 61.1293 33.0441H61.1338C61.3106 33.0467 61.4856 33.041 61.6606 33.041C61.681 33.041 61.7232 33.0352 61.7649 33.0307M35.8198 33.3283C35.8243 33.3412 35.8269 33.3545 35.8287 33.3674C35.8229 33.3341 35.8198 33.3137 35.8185 33.3039C35.8198 33.311 35.8198 33.3212 35.8198 33.3283ZM35.8198 33.3283C35.8025 33.2617 35.7678 33.1924 35.7474 33.1271C35.7314 33.0752 35.7172 33.0245 35.7025 32.9721C35.7403 32.9734 35.7776 32.9734 35.814 32.9734H42.4229M42.4229 32.9734C42.3447 33.3163 42.2897 33.6637 42.2563 34.0137C42.6019 33.6664 42.9493 33.3208 43.2953 32.9734H42.4229ZM42.4229 32.9734C43.0523 30.1667 45.1253 27.6784 47.9511 26.8811C50.4874 26.1665 53.2506 27.0664 54.8145 29.1917C55.2311 29.7576 55.5247 30.3941 55.7637 31.0524C55.8272 31.2216 56.2239 32.3805 56.3309 32.9925M56.3309 32.9925H56.3065C55.3906 32.9997 56.4064 33.311 56.3238 33.3657C56.3713 33.3337 56.3673 33.192 56.3309 32.9925ZM56.3309 32.9925C56.5552 32.9912 56.7822 32.9894 57.0078 32.9881C57.3809 32.985 57.7558 32.9837 58.1307 32.9837C58.7339 32.9837 59.3389 32.9805 59.9421 33.0023C60.3383 33.017 60.7349 33.0383 61.1298 33.0441C61.076 33.2813 61.0356 33.5171 61.0529 33.721C61.076 33.9831 61.4278 33.1134 61.7649 33.0307M61.7649 33.0307C61.804 33.0263 61.84 33.0236 61.8618 33.0294C61.8298 33.0205 61.7983 33.0223 61.7649 33.0307Z" stroke="#0E73BA" stroke-width="0.431294" stroke-miterlimit="10"/>
<path d="M72.7823 30.2063C71.3357 31.5215 69.2969 31.8902 67.5175 31.096C67.2124 30.5563 67.4785 29.7519 68.0803 29.5507C68.222 29.62 68.3695 29.6795 68.52 29.727C69.6616 30.0873 70.6699 29.8079 71.4569 29.1771C71.6377 29.0323 71.8056 28.8689 71.962 28.6912C72.9067 27.6119 73.3829 25.9813 73.1483 24.5635C72.976 23.5246 74.5386 23.0822 74.711 24.1251C75.0756 26.3371 74.4649 28.6779 72.7823 30.2059V30.2063Z" fill="#0E73BA" stroke="#0E73BA" stroke-width="0.431294" stroke-miterlimit="10"/>
<path d="M14.5779 59.1566H5.09478L3.51708 64.5009C3.44023 64.7617 3.21504 64.9518 2.94498 64.9829C2.79307 65.0006 2.64116 65.0153 2.48925 65.0268C2.1881 65.0495 1.88695 65.0615 1.58625 65.0615C1.26156 65.0615 0.943526 65.0495 0.630827 65.0268C0.627718 65.0268 0.624609 65.0264 0.6215 65.026C0.185765 64.9931 -0.101172 64.5565 0.0343011 64.1412L7.62258 40.8247C7.80159 40.2748 8.29373 39.8826 8.87071 39.843C8.87427 39.843 8.87782 39.8426 8.88093 39.8421C9.22827 39.819 9.58717 39.8075 9.95761 39.8075C10.2814 39.8075 10.6177 39.8195 10.965 39.8421C10.981 39.843 10.9974 39.8444 11.0134 39.8457C11.5895 39.8861 12.0803 40.2797 12.2584 40.8291L19.7863 64.0599C19.9342 64.5156 19.6166 64.9931 19.1383 65.026C19.1347 65.026 19.1312 65.0264 19.128 65.0268C18.7807 65.0495 18.4449 65.0615 18.1207 65.0615C17.8195 65.0615 17.513 65.0495 17.2003 65.0268C17.0662 65.0166 16.9347 65.0046 16.8068 64.9904C16.511 64.9576 16.2631 64.7528 16.1774 64.4676L14.5775 59.1562L14.5779 59.1566ZM6.03288 56.0652H13.6403L9.81903 43.3169L6.03288 56.0652Z" fill="#0E73BA"/>
<path d="M21.7039 40.2726C21.7039 39.7951 22.0694 39.3935 22.5456 39.3576C22.5487 39.3576 22.5518 39.3571 22.5549 39.3567C22.8676 39.3336 23.151 39.322 23.4059 39.322C23.6609 39.322 23.9443 39.334 24.257 39.3567C24.2601 39.3567 24.2632 39.3571 24.2663 39.3576C24.7425 39.3935 25.108 39.7951 25.108 40.2726V59.5386C25.108 60.1871 25.1658 60.697 25.2817 61.067C25.3972 61.4379 25.5535 61.7218 25.7507 61.9181C25.9471 62.1153 26.1789 62.2428 26.4454 62.3001C26.7115 62.3583 26.9953 62.3867 27.2965 62.3867C27.5048 62.3867 27.742 62.3756 28.0085 62.352C28.0111 62.352 28.0138 62.3516 28.0165 62.3511C28.4131 62.3169 28.7738 62.5839 28.8417 62.9761C28.8866 63.2359 28.9221 63.502 28.9479 63.7747C29.0114 64.4517 28.5095 65.0597 27.8312 65.1121C27.8268 65.1121 27.8219 65.113 27.8175 65.113C27.3538 65.1477 26.9256 65.165 26.532 65.165C25.86 65.165 25.2346 65.0837 24.6563 64.922C24.0771 64.7603 23.5676 64.4938 23.1279 64.123C22.6877 63.753 22.3404 63.2546 22.0858 62.6292C21.8309 62.0038 21.7039 61.2283 21.7039 60.3022V40.2721V40.2726Z" fill="#0E73BA"/>
<path d="M40.5246 53.1821C40.5246 51.8158 40.1773 50.8666 39.4826 50.3336C38.7879 49.801 37.7805 49.5345 36.4604 49.5345C35.6498 49.5345 34.8912 49.5985 34.1854 49.7255C33.639 49.8241 33.1029 49.9467 32.5779 50.0937C32.295 50.1728 31.9978 50.0262 31.8823 49.7557C31.6518 49.2178 31.5154 48.6155 31.4732 47.9488C31.4559 47.6752 31.6354 47.4265 31.8988 47.351C32.5664 47.16 33.2877 47.0081 34.0637 46.8944C35.0129 46.7553 35.9274 46.686 36.8078 46.686C39.1233 46.686 40.8831 47.2128 42.0877 48.2664C43.2914 49.3204 43.8941 51.0052 43.8941 53.3207V63.9991C43.8941 64.2758 43.7023 64.5152 43.4318 64.5734C42.7175 64.7266 41.8874 64.8834 40.9413 65.0442C39.7829 65.2405 38.6018 65.3392 37.3981 65.3392C36.2632 65.3392 35.2385 65.2352 34.324 65.0265C33.409 64.8181 32.633 64.4823 31.9965 64.0191C31.3591 63.5562 30.8678 62.9655 30.52 62.2477C30.1727 61.5299 29.999 60.662 29.999 59.6426C29.999 58.6232 30.2016 57.7726 30.6071 57.0202C31.0122 56.2678 31.5625 55.6428 32.2572 55.1445C32.9519 54.647 33.751 54.2761 34.654 54.0331C35.557 53.7902 36.5062 53.6685 37.5025 53.6685C38.2434 53.6685 38.8514 53.6858 39.3262 53.7204C39.5248 53.7351 39.7105 53.7506 39.8832 53.7671C40.2275 53.8004 40.5246 53.5277 40.5246 53.1816V53.1821ZM40.5246 57.0735C40.5246 56.7728 40.2981 56.521 39.9992 56.489C39.7624 56.4637 39.4973 56.4379 39.2045 56.4121C38.6715 56.3659 38.2203 56.3428 37.8498 56.3428C36.4138 56.3428 35.3193 56.6093 34.5674 57.1419C33.8145 57.6749 33.4387 58.4851 33.4387 59.5733C33.4387 60.268 33.5657 60.8126 33.8207 61.2061C34.0752 61.6001 34.3937 61.9008 34.7761 62.1091C35.1581 62.3174 35.5805 62.4449 36.0438 62.4911C36.5066 62.5377 36.9468 62.5604 37.3639 62.5604C37.8965 62.5604 38.4463 62.5315 39.014 62.4738C39.3871 62.436 39.7331 62.3854 40.0511 62.3223C40.3265 62.2677 40.5246 62.0261 40.5246 61.7453V57.0739V57.0735Z" fill="#0E73BA"/>
<path d="M47.0449 47.5775C47.0449 47.3012 47.2484 47.064 47.522 47.0289C47.6126 47.0174 47.7027 47.0072 47.7916 46.9987C48.0345 46.9761 48.2833 46.9641 48.5382 46.9641C48.7932 46.9641 49.0299 46.9761 49.2503 46.9987C49.3502 47.0094 49.4537 47.0223 49.5612 47.0378C49.8015 47.072 49.9938 47.2559 50.0324 47.4953C50.0786 47.78 50.1244 48.1181 50.1706 48.5098C50.2097 48.8425 50.2377 49.1437 50.255 49.4142C50.2661 49.5865 50.4855 49.6496 50.5863 49.5092C50.7551 49.2747 50.9466 49.0402 51.1606 48.8052C51.5195 48.4117 51.9304 48.0585 52.3937 47.7458C52.8565 47.4331 53.3891 47.1786 53.9918 46.9814C54.5937 46.7851 55.2537 46.686 55.9719 46.686C58.0094 46.686 59.5151 47.271 60.4879 48.4401C61.4606 49.6096 61.947 51.3405 61.947 53.6329V64.4424C61.947 64.7226 61.7382 64.9612 61.4597 64.9918C61.3385 65.0051 61.2114 65.0167 61.0786 65.0265C60.7539 65.0491 60.4648 65.0611 60.2103 65.0611C59.9558 65.0611 59.6719 65.0491 59.3592 65.0265C59.2331 65.0171 59.1114 65.0056 58.9946 64.9927C58.7165 64.9616 58.5086 64.7231 58.5086 64.4433V54.571C58.5086 52.9267 58.2537 51.7172 57.7442 50.9408C57.2347 50.1653 56.4241 49.7771 55.3128 49.7771C54.6643 49.7771 54.0504 49.893 53.4717 50.1244C52.8925 50.3563 52.383 50.7151 51.9433 51.2011C51.5031 51.6874 51.15 52.3186 50.8839 53.0941C50.6174 53.8706 50.4846 54.8024 50.4846 55.8907V64.4433C50.4846 64.7231 50.2763 64.9612 49.9987 64.9927C49.8819 65.006 49.7602 65.0171 49.6336 65.0265C49.3209 65.0491 49.037 65.0611 48.7825 65.0611C48.528 65.0611 48.238 65.0491 47.9142 65.0265C47.7814 65.0167 47.6543 65.0056 47.5331 64.9918C47.2546 64.9612 47.0458 64.7226 47.0458 64.4424V47.5766L47.0449 47.5775Z" fill="#0E73BA"/>
<path d="M65.2466 39.935C65.2466 39.6583 65.4527 39.4224 65.7276 39.3913C65.8462 39.378 65.9697 39.3664 66.0981 39.3567C66.4108 39.3336 66.6941 39.322 66.9491 39.322C67.2041 39.322 67.4928 39.334 67.8175 39.3567C67.9525 39.3664 68.0813 39.378 68.2039 39.3918C68.4793 39.4224 68.6858 39.6583 68.6858 39.9354V64.4481C68.6858 64.7253 68.4793 64.9611 68.2039 64.9918C68.0809 65.0055 67.9521 65.0171 67.8175 65.0269C67.4928 65.0495 67.2036 65.0615 66.9491 65.0615C66.6946 65.0615 66.4108 65.0495 66.0981 65.0269C65.9697 65.0171 65.8462 65.0055 65.7276 64.9922C65.4527 64.9611 65.2466 64.7253 65.2466 64.4485V39.9345V39.935ZM69.8305 55.3692L75.1495 47.3092C75.2361 47.1781 75.3742 47.0889 75.5301 47.068C75.7495 47.0387 75.969 47.0156 76.1888 46.9987C76.4895 46.976 76.8018 46.964 77.1265 46.964C77.4738 46.964 77.8038 46.976 78.1165 46.9987C78.1294 46.9996 78.1419 47.0005 78.1547 47.0018C78.5718 47.0342 78.7957 47.5095 78.5607 47.8555L73.6215 55.128C73.494 55.3159 73.4953 55.5633 73.6259 55.7494L79.5152 64.1674C79.7564 64.5125 79.5348 64.9935 79.115 65.0269C79.1119 65.0269 79.1088 65.0273 79.1062 65.0277C78.805 65.0504 78.4923 65.0624 78.1685 65.0624C77.8447 65.0624 77.52 65.0504 77.1958 65.0277C76.9501 65.01 76.7045 64.986 76.4593 64.9549C76.3088 64.9358 76.1728 64.8532 76.0849 64.7293L69.842 55.9892C69.7105 55.8049 69.7056 55.5584 69.8305 55.3696V55.3692Z" fill="#0E73BA"/>
<path d="M91.612 53.1821C91.612 51.8158 91.2647 50.8666 90.57 50.3336C89.8753 49.801 88.8679 49.5345 87.5478 49.5345C86.7372 49.5345 85.9786 49.5985 85.2728 49.7255C84.7264 49.8241 84.1903 49.9467 83.6653 50.0937C83.3824 50.1728 83.0852 50.0262 82.9697 49.7557C82.7392 49.2178 82.6028 48.6155 82.5606 47.9488C82.5433 47.6752 82.7228 47.4265 82.9862 47.351C83.6538 47.16 84.3751 47.0081 85.1511 46.8944C86.1003 46.7553 87.0148 46.686 87.8952 46.686C90.2107 46.686 91.9705 47.2128 93.1751 48.2664C94.3788 49.3204 94.9815 51.0052 94.9815 53.3207V63.9991C94.9815 64.2758 94.7897 64.5152 94.5192 64.5734C93.8049 64.7266 92.9748 64.8834 92.0287 65.0442C90.8703 65.2405 89.6892 65.3392 88.4855 65.3392C87.3506 65.3392 86.3259 65.2352 85.4113 65.0265C84.4963 64.8181 83.7204 64.4823 83.0839 64.0191C82.4465 63.5562 81.9552 62.9655 81.6074 62.2477C81.2601 61.5299 81.0864 60.662 81.0864 59.6426C81.0864 58.6232 81.289 57.7726 81.6945 57.0202C82.0996 56.2678 82.6499 55.6428 83.3446 55.1445C84.0393 54.647 84.8384 54.2761 85.7414 54.0331C86.6444 53.7902 87.5936 53.6685 88.5899 53.6685C89.3308 53.6685 89.9388 53.6858 90.4137 53.7204C90.6122 53.7351 90.7979 53.7506 90.9706 53.7671C91.3149 53.8004 91.612 53.5277 91.612 53.1816V53.1821ZM91.612 57.0735C91.612 56.7728 91.3855 56.521 91.0866 56.489C90.8498 56.4637 90.5847 56.4379 90.2919 56.4121C89.7589 56.3659 89.3077 56.3428 88.9372 56.3428C87.5012 56.3428 86.4067 56.6093 85.6548 57.1419C84.9019 57.6749 84.5261 58.4851 84.5261 59.5733C84.5261 60.268 84.6532 60.8126 84.9081 61.2061C85.1626 61.6001 85.4811 61.9008 85.8635 62.1091C86.2455 62.3174 86.6679 62.4449 87.1312 62.4911C87.594 62.5377 88.0342 62.5604 88.4513 62.5604C88.9839 62.5604 89.5337 62.5315 90.1014 62.4738C90.4745 62.436 90.8205 62.3854 91.1385 62.3223C91.4139 62.2677 91.612 62.0261 91.612 61.7453V57.0739V57.0735Z" fill="#0E73BA"/>
<path d="M98.1315 47.5699C98.1315 47.2985 98.331 47.0649 98.6002 47.0293C98.6885 47.0178 98.7756 47.0076 98.8609 46.9991C99.0919 46.9765 99.3353 46.9645 99.5902 46.9645C99.8452 46.9645 100.099 46.9765 100.355 46.9991C100.458 47.0085 100.558 47.02 100.654 47.0333C100.891 47.0662 101.079 47.2474 101.118 47.4837C101.165 47.7649 101.211 48.0958 101.258 48.4756C101.294 48.77 101.32 49.041 101.338 49.2884C101.351 49.4825 101.598 49.5553 101.715 49.4003C102.146 48.8273 102.671 48.3165 103.29 47.8679C104.089 47.2892 105.114 46.9996 106.364 46.9996C106.549 46.9996 106.74 47.0053 106.937 47.0169C106.964 47.0187 106.989 47.02 107.015 47.0218C107.269 47.0395 107.479 47.2292 107.515 47.4811C107.526 47.5623 107.536 47.645 107.544 47.7289C107.567 47.9608 107.579 48.2037 107.579 48.4582C107.579 48.7363 107.562 49.0259 107.527 49.3266C107.514 49.439 107.501 49.55 107.486 49.6588C107.449 49.9347 107.207 50.1381 106.929 50.127C106.897 50.1257 106.865 50.1252 106.832 50.1252H106.363C105.738 50.1252 105.142 50.2123 104.574 50.386C104.007 50.5596 103.498 50.867 103.046 51.3067C102.594 51.7469 102.235 52.3488 101.969 53.1127C101.703 53.8772 101.57 54.8615 101.57 56.0656V64.4512C101.57 64.727 101.365 64.962 101.091 64.9926C100.972 65.006 100.848 65.0175 100.719 65.0273C100.406 65.0499 100.122 65.0619 99.8678 65.0619C99.6133 65.0619 99.3295 65.0499 99.0168 65.0273C98.8809 65.0171 98.7481 65.0046 98.6184 64.9904C98.3412 64.9593 98.1311 64.7266 98.1311 64.4476V47.5703L98.1315 47.5699Z" fill="#0E73BA"/>
<path d="M12.8718 69.7801C13.1339 69.7374 13.3928 69.7166 13.6482 69.7166C13.9036 69.7166 14.1657 69.7379 14.4353 69.7801V77.4265C14.1657 77.4692 13.9072 77.4905 13.6589 77.4905C13.3964 77.4905 13.1343 77.4692 12.8718 77.4265V69.7801Z" fill="#727373"/>
<path d="M15.9238 71.9286C16.0229 71.9073 16.1224 71.8913 16.2219 71.8807C16.3209 71.87 16.4306 71.8647 16.5514 71.8647C16.6723 71.8647 16.7784 71.87 16.8708 71.8807C16.9628 71.8913 17.0587 71.9073 17.1577 71.9286C17.1791 71.9642 17.1986 72.0157 17.2164 72.0828C17.2341 72.1503 17.2501 72.2209 17.2643 72.2955C17.2786 72.3701 17.291 72.4425 17.3017 72.5136C17.3123 72.5847 17.3212 72.6446 17.3283 72.6944C17.3852 72.5878 17.4593 72.4816 17.5517 72.3755C17.6437 72.2689 17.7538 72.1734 17.8813 72.0885C18.0088 72.0032 18.1523 71.9344 18.3122 71.8811C18.4716 71.8278 18.6506 71.8011 18.8492 71.8011C19.7069 71.8011 20.2563 72.1272 20.4975 72.7797C20.6392 72.5176 20.8395 72.2889 21.0985 72.0939C21.357 71.8989 21.6852 71.8016 22.0823 71.8016C22.7059 71.8016 23.1652 71.9735 23.4597 72.3173C23.7537 72.6615 23.9008 73.1985 23.9008 73.9283V77.4271C23.6458 77.4697 23.394 77.491 23.1457 77.491C22.8974 77.491 22.646 77.4697 22.3906 77.4271V74.3218C22.3906 73.939 22.3426 73.6449 22.2471 73.4393C22.1516 73.2336 21.9584 73.131 21.6675 73.131C21.5466 73.131 21.428 73.1488 21.3112 73.1843C21.1944 73.2198 21.0878 73.2851 20.9923 73.3811C20.8968 73.477 20.8186 73.6116 20.7582 73.7853C20.6978 73.959 20.6676 74.1842 20.6676 74.4604V77.4275C20.4127 77.4702 20.1608 77.4915 19.9125 77.4915C19.6642 77.4915 19.4128 77.4702 19.1574 77.4275V74.3223C19.1574 73.9394 19.1094 73.6454 19.014 73.4397C18.9185 73.2341 18.7252 73.1314 18.4343 73.1314C18.3135 73.1314 18.1931 73.1492 18.0727 73.1848C17.9524 73.2203 17.844 73.2896 17.7485 73.3922C17.6526 73.4952 17.5766 73.6387 17.5197 73.823C17.4629 74.0074 17.4349 74.2486 17.4349 74.5461V77.4284C17.1795 77.471 16.9281 77.4924 16.6798 77.4924C16.4315 77.4924 16.1801 77.471 15.9247 77.4284V71.93L15.9238 71.9286Z" fill="#727373"/>
<path d="M25.24 71.9179C25.3395 71.8966 25.4368 71.8824 25.5323 71.8753C25.6282 71.8682 25.7361 71.8646 25.8565 71.8646C26.0551 71.8646 26.2572 71.8859 26.4628 71.9281C26.4841 71.9637 26.5037 72.0152 26.5214 72.0823C26.5392 72.1498 26.557 72.2222 26.5747 72.3004C26.5925 72.3785 26.6067 72.4545 26.6174 72.5291C26.628 72.6037 26.6369 72.6659 26.644 72.7152C26.708 72.602 26.7857 72.49 26.8781 72.3803C26.9701 72.2706 27.0815 72.1729 27.213 72.088C27.344 72.0028 27.4911 71.9339 27.6541 71.8806C27.8171 71.8273 27.9979 71.8007 28.1964 71.8007C28.5011 71.8007 28.7867 71.8575 29.0528 71.9708C29.3188 72.084 29.5507 72.2564 29.7493 72.4865C29.9478 72.717 30.1019 73.0062 30.2121 73.3531C30.3218 73.7004 30.3769 74.1117 30.3769 74.587C30.3769 75.0622 30.3094 75.4607 30.1748 75.8258C30.0402 76.1909 29.8452 76.5009 29.5898 76.7563C29.3348 77.0113 29.0226 77.2085 28.6539 77.3466C28.2853 77.4848 27.8668 77.5541 27.3991 77.5541C27.2783 77.5541 27.1597 77.5487 27.0429 77.5381C26.9261 77.5274 26.8284 77.515 26.7506 77.5008V79.9468C26.616 79.9682 26.4863 79.9824 26.3624 79.9895C26.2381 79.9966 26.1159 80.0001 25.9955 80.0001C25.8752 80.0001 25.7526 79.9966 25.6286 79.9895C25.5043 79.9824 25.375 79.9682 25.2404 79.9468V71.9175L25.24 71.9179ZM26.7502 76.2571C26.9416 76.3139 27.1615 76.3419 27.4093 76.3419C27.8491 76.3419 28.1858 76.2002 28.4198 75.9164C28.6539 75.633 28.7707 75.2039 28.7707 74.6296C28.7707 74.4097 28.753 74.2059 28.7174 74.018C28.6819 73.8301 28.6215 73.6689 28.5367 73.5343C28.4518 73.3997 28.3434 73.2931 28.2124 73.2154C28.0814 73.1372 27.9201 73.0985 27.7287 73.0985C27.5515 73.0985 27.4009 73.1323 27.2765 73.1994C27.1526 73.2669 27.0513 73.3588 26.9736 73.4756C26.8954 73.5925 26.839 73.7293 26.8035 73.8852C26.768 74.0411 26.7502 74.2081 26.7502 74.3849V76.2566V76.2571Z" fill="#727373"/>
<path d="M31.5574 71.9286C31.664 71.9073 31.7648 71.8913 31.8603 71.8806C31.9562 71.8699 32.0606 71.8646 32.1739 71.8646C32.2805 71.8646 32.3849 71.8717 32.4875 71.8859C32.5901 71.9002 32.6914 71.9179 32.7904 71.9392C32.8117 71.9748 32.8313 72.0263 32.849 72.0934C32.8668 72.1609 32.8828 72.2315 32.897 72.3061C32.9112 72.3808 32.9237 72.4549 32.9343 72.5296C32.945 72.6042 32.9539 72.6664 32.961 72.7157C33.1169 72.4958 33.3083 72.299 33.5353 72.1253C33.7623 71.9517 34.0456 71.8646 34.3863 71.8646C34.4569 71.8646 34.5387 71.8682 34.6311 71.8753C34.723 71.8824 34.7905 71.893 34.8332 71.9073C34.8474 71.9783 34.858 72.0601 34.8651 72.152C34.8723 72.2444 34.8758 72.3399 34.8758 72.4394C34.8758 72.5598 34.8705 72.6912 34.8598 72.8329C34.8492 72.9746 34.8296 73.1092 34.8012 73.2371C34.723 73.2229 34.6364 73.2158 34.5405 73.2158H34.365C34.2446 73.2158 34.11 73.2282 33.9608 73.2531C33.812 73.278 33.6699 73.3437 33.5353 73.4499C33.4007 73.556 33.2888 73.7155 33.2004 73.9283C33.1115 74.141 33.0676 74.4386 33.0676 74.8215V77.4377C32.9401 77.459 32.8122 77.4732 32.6847 77.4803C32.5572 77.4874 32.4328 77.491 32.3125 77.491C32.1921 77.491 32.0695 77.4874 31.9456 77.4803C31.8212 77.4732 31.692 77.459 31.5574 77.4377V71.9286Z" fill="#727373"/>
<path d="M35.8323 71.9286C35.9389 71.9073 36.0397 71.8913 36.1352 71.8806C36.2311 71.8699 36.3355 71.8646 36.4488 71.8646C36.5554 71.8646 36.6598 71.8717 36.7624 71.8859C36.865 71.9002 36.9663 71.9179 37.0653 71.9392C37.0866 71.9748 37.1062 72.0263 37.1239 72.0934C37.1417 72.1609 37.1577 72.2315 37.1719 72.3061C37.1861 72.3808 37.1986 72.4549 37.2092 72.5296C37.2199 72.6042 37.2288 72.6664 37.2359 72.7157C37.3918 72.4958 37.5832 72.299 37.8102 72.1253C38.0372 71.9517 38.3205 71.8646 38.6612 71.8646C38.7319 71.8646 38.8136 71.8682 38.906 71.8753C38.9979 71.8824 39.0654 71.893 39.1081 71.9073C39.1223 71.9783 39.1329 72.0601 39.14 72.152C39.1472 72.2444 39.1507 72.3399 39.1507 72.4394C39.1507 72.5598 39.1454 72.6912 39.1347 72.8329C39.1241 72.9746 39.1045 73.1092 39.0761 73.2371C38.9979 73.2229 38.9113 73.2158 38.8154 73.2158H38.6399C38.5195 73.2158 38.385 73.2282 38.2357 73.2531C38.0869 73.278 37.9448 73.3437 37.8102 73.4499C37.6756 73.556 37.5637 73.7155 37.4753 73.9283C37.3864 74.141 37.3425 74.4386 37.3425 74.8215V77.4377C37.215 77.459 37.0871 77.4732 36.9596 77.4803C36.8321 77.4874 36.7077 77.491 36.5874 77.491C36.467 77.491 36.3444 77.4874 36.2205 77.4803C36.0961 77.4732 35.9669 77.459 35.8323 77.4377V71.9286Z" fill="#727373"/>
<path d="M40.4056 73.0773H39.6931C39.6718 72.9853 39.6558 72.8876 39.6451 72.785C39.6345 72.6824 39.6292 72.5847 39.6292 72.4927C39.6292 72.3013 39.6505 72.1134 39.6927 71.9291H41.8838V77.4275C41.6284 77.4701 41.3801 77.4915 41.1393 77.4915C40.8986 77.4915 40.6605 77.4701 40.4056 77.4275V73.0777V73.0773ZM40.1821 71.0034C40.1395 70.7622 40.1182 70.5246 40.1182 70.2909C40.1182 70.0573 40.1395 69.8268 40.1821 69.5785C40.3025 69.5572 40.4322 69.5412 40.5704 69.5305C40.7085 69.5199 40.8342 69.5145 40.9479 69.5145C41.0683 69.5145 41.1993 69.5199 41.3414 69.5305C41.4831 69.5412 41.6142 69.5572 41.735 69.5785C41.7563 69.6993 41.7705 69.8179 41.7776 69.9347C41.7847 70.0515 41.7883 70.1706 41.7883 70.2909C41.7883 70.4047 41.7847 70.5215 41.7776 70.6418C41.7705 70.7627 41.7563 70.883 41.735 71.0034C41.6142 71.0247 41.4849 71.0389 41.3468 71.046C41.2086 71.0531 41.0789 71.0567 40.9586 71.0567C40.8453 71.0567 40.7174 71.0531 40.5757 71.046C40.434 71.0389 40.3025 71.0247 40.1821 71.0034Z" fill="#727373"/>
<path d="M43.3726 71.9286C43.4716 71.9073 43.5711 71.8913 43.6706 71.8807C43.7697 71.87 43.8794 71.8647 44.0002 71.8647C44.121 71.8647 44.2272 71.87 44.3195 71.8807C44.4115 71.8913 44.5074 71.9073 44.6065 71.9286C44.6278 71.9642 44.6473 72.0157 44.6651 72.0828C44.6829 72.1503 44.6989 72.2209 44.7131 72.2955C44.7273 72.3701 44.7397 72.4425 44.7504 72.5136C44.761 72.5847 44.7699 72.6446 44.777 72.6944C44.8477 72.5878 44.9329 72.4816 45.0324 72.3755C45.1315 72.2689 45.247 72.1734 45.378 72.0885C45.509 72.0032 45.6561 71.9344 45.8195 71.8811C45.9825 71.8278 46.1633 71.8011 46.3619 71.8011C46.9855 71.8011 47.4554 71.9713 47.7712 72.3115C48.0866 72.6517 48.2447 73.1874 48.2447 73.9176V77.4271C47.9893 77.4697 47.7375 77.491 47.4896 77.491C47.2418 77.491 46.9899 77.4697 46.7345 77.4271V74.3218C46.7345 73.939 46.6759 73.6449 46.5591 73.4393C46.4422 73.2336 46.2384 73.131 45.9474 73.131C45.8271 73.131 45.7027 73.1488 45.5752 73.1843C45.4477 73.2198 45.3323 73.2891 45.2297 73.3917C45.1266 73.4948 45.0435 73.6383 44.98 73.8226C44.9161 74.0069 44.8841 74.2481 44.8841 74.5457V77.428C44.6287 77.4706 44.3773 77.4919 44.129 77.4919C43.8807 77.4919 43.6293 77.4706 43.3739 77.428V71.9295L43.3726 71.9286Z" fill="#727373"/>
<path d="M49.7642 73.0772H49.0731L49.0198 72.8644L51.0083 70.3224H51.2531V71.9281H52.5399C52.5612 72.0347 52.5754 72.1302 52.5825 72.2155C52.5896 72.3003 52.5932 72.3891 52.5932 72.4815C52.5932 72.581 52.5896 72.6765 52.5825 72.7685C52.5754 72.8608 52.5612 72.9635 52.5399 73.0767H51.2531V75.2359C51.2531 75.4557 51.2709 75.6329 51.3064 75.7675C51.3419 75.9021 51.393 76.0087 51.4605 76.0869C51.528 76.1651 51.6111 76.2179 51.7106 76.2464C51.8096 76.2748 51.9269 76.289 52.0615 76.289C52.1681 76.289 52.2725 76.2801 52.3751 76.2623C52.4777 76.2446 52.5683 76.2286 52.646 76.2144C52.6958 76.349 52.7309 76.4893 52.7526 76.6346C52.7739 76.7798 52.7846 76.9095 52.7846 77.0228C52.7846 77.1009 52.7828 77.1662 52.7793 77.2195C52.7757 77.2728 52.7704 77.3244 52.7633 77.3737C52.4373 77.4514 52.1001 77.4905 51.7528 77.4905C51.1074 77.4905 50.6148 77.3399 50.2746 77.0383C49.9343 76.7372 49.7642 76.2459 49.7642 75.5654V73.0767V73.0772Z" fill="#727373"/>
<path d="M56.0278 69.7482C56.3539 69.7197 56.6834 69.6971 57.017 69.6789C57.3501 69.6611 57.6868 69.6522 58.0275 69.6522C58.3682 69.6522 58.7417 69.6878 59.1068 69.7588C59.472 69.8299 59.8015 69.9627 60.096 70.1577C60.3901 70.3527 60.6295 70.6241 60.8138 70.9714C60.9981 71.3188 61.0901 71.7692 61.0901 72.3221C61.0901 72.8751 60.9981 73.3238 60.8138 73.6676C60.6295 74.0113 60.3918 74.2827 60.1014 74.4813C59.8104 74.6798 59.4862 74.8149 59.1282 74.8855C58.7702 74.9566 58.4175 74.9916 58.0701 74.9916C57.9778 74.9916 57.8911 74.9903 57.8094 74.9863C57.7277 74.9828 57.6513 74.9774 57.5807 74.9703V77.4271C57.4461 77.4484 57.3146 77.4626 57.1871 77.4697C57.0596 77.4768 56.9353 77.4804 56.8149 77.4804C56.7016 77.4804 56.5773 77.4768 56.4427 77.4697C56.3081 77.4626 56.1695 77.4484 56.0278 77.4271V69.7486V69.7482ZM57.5807 73.6836C57.6655 73.6978 57.7455 73.7049 57.8201 73.7049H58.091C58.2682 73.7049 58.4419 73.6818 58.612 73.6356C58.7822 73.5894 58.9327 73.5134 59.0642 73.4068C59.1952 73.3002 59.3001 73.1603 59.3778 72.9866C59.456 72.813 59.4946 72.5984 59.4946 72.343C59.4946 72.0876 59.4555 71.8593 59.3778 71.6785C59.2996 71.4978 59.1952 71.3525 59.0642 71.2424C58.9332 71.1327 58.7822 71.0545 58.612 71.0083C58.4419 70.9621 58.2678 70.939 58.091 70.939C58.0128 70.939 57.9405 70.9408 57.8729 70.9443C57.8054 70.9479 57.7081 70.9568 57.5807 70.971V73.6831V73.6836Z" fill="#727373"/>
<path d="M61.5366 71.9392C61.7067 71.9037 61.8644 71.8824 62.0101 71.8753C62.1554 71.8682 62.2815 71.8646 62.3877 71.8646C62.5294 71.8646 62.671 71.8682 62.8132 71.8753C62.9549 71.8824 63.0859 71.9002 63.2067 71.9286L64.4087 76.023L65.5893 71.9286C65.7096 71.9073 65.8376 71.8913 65.9721 71.8806C66.1067 71.8699 66.2413 71.8646 66.3763 71.8646C66.4829 71.8646 66.6051 71.8682 66.7432 71.8753C66.8814 71.8824 67.0391 71.9037 67.2167 71.9392L65.1322 77.427C64.9976 77.4483 64.8559 77.4626 64.7067 77.4697C64.5579 77.4768 64.4335 77.4803 64.3345 77.4803C64.2283 77.4803 64.1075 77.4768 63.9729 77.4697C63.8383 77.4626 63.7104 77.4448 63.59 77.4164L61.5375 71.9392H61.5366Z" fill="#727373"/>
<path d="M68.1624 73.0772H67.4713L67.418 72.8644L69.4065 70.3224H69.6513V71.9281H70.9381C70.9594 72.0347 70.9736 72.1302 70.9807 72.2155C70.9878 72.3003 70.9914 72.3891 70.9914 72.4815C70.9914 72.581 70.9878 72.6765 70.9807 72.7685C70.9736 72.8608 70.9594 72.9635 70.9381 73.0767H69.6513V75.2359C69.6513 75.4557 69.669 75.6329 69.7046 75.7675C69.7401 75.9021 69.7912 76.0087 69.8587 76.0869C69.9262 76.1651 70.0093 76.2179 70.1088 76.2464C70.2078 76.2748 70.3251 76.289 70.4597 76.289C70.5663 76.289 70.6707 76.2801 70.7733 76.2623C70.8759 76.2446 70.9665 76.2286 71.0442 76.2144C71.094 76.349 71.129 76.4893 71.1508 76.6346C71.1721 76.7798 71.1828 76.9095 71.1828 77.0228C71.1828 77.1009 71.181 77.1662 71.1775 77.2195C71.1739 77.2728 71.1686 77.3244 71.1615 77.3737C70.8354 77.4514 70.4983 77.4905 70.151 77.4905C69.5056 77.4905 69.013 77.3399 68.6728 77.0383C68.3325 76.7372 68.1624 76.2459 68.1624 75.5654V73.0767V73.0772Z" fill="#727373"/>
<path d="M72.0972 77.4265C72.0546 77.1645 72.0337 76.9055 72.0337 76.6501C72.0337 76.3947 72.055 76.1326 72.0972 75.863C72.3593 75.8204 72.6182 75.7991 72.8736 75.7991C73.129 75.7991 73.3911 75.8204 73.6607 75.863C73.7033 76.1326 73.7242 76.3912 73.7242 76.6395C73.7242 76.902 73.7029 77.164 73.6607 77.4265C73.3911 77.4692 73.1326 77.4905 72.8843 77.4905C72.6218 77.4905 72.3593 77.4692 72.0972 77.4265Z" fill="#727373"/>
<path d="M77.4993 69.7801C77.7613 69.7374 78.0132 69.7166 78.2544 69.7166C78.4956 69.7166 78.7612 69.7379 79.0308 69.7801V76.0869H81.679C81.7003 76.2073 81.7145 76.3228 81.7216 76.4325C81.7287 76.5426 81.7323 76.647 81.7323 76.7461C81.7323 76.8598 81.7287 76.9713 81.7216 77.081C81.7145 77.1907 81.7003 77.3062 81.679 77.4265H77.4993V69.7801Z" fill="#727373"/>
<path d="M82.8917 73.0772H82.2005L82.1472 72.8644L84.1358 70.3224H84.3805V71.9281H85.6673C85.6886 72.0347 85.7028 72.1302 85.7099 72.2155C85.717 72.3003 85.7206 72.3891 85.7206 72.4815C85.7206 72.581 85.717 72.6765 85.7099 72.7685C85.7028 72.8608 85.6886 72.9635 85.6673 73.0767H84.3805V75.2359C84.3805 75.4557 84.3983 75.6329 84.4338 75.7675C84.4694 75.9021 84.5204 76.0087 84.588 76.0869C84.6555 76.1651 84.7385 76.2179 84.838 76.2464C84.9371 76.2748 85.0543 76.289 85.1889 76.289C85.2955 76.289 85.3999 76.2801 85.5025 76.2623C85.6051 76.2446 85.6957 76.2286 85.7735 76.2144C85.8232 76.349 85.8583 76.4893 85.8801 76.6346C85.9014 76.7798 85.912 76.9095 85.912 77.0228C85.912 77.1009 85.9103 77.1662 85.9067 77.2195C85.9032 77.2728 85.8978 77.3244 85.8907 77.3737C85.5647 77.4514 85.2276 77.4905 84.8802 77.4905C84.2348 77.4905 83.7422 77.3399 83.402 77.0383C83.0618 76.7372 82.8917 76.2459 82.8917 75.5654V73.0767V73.0772Z" fill="#727373"/>
<path d="M90.1127 69.6527C90.2402 69.6313 90.3663 69.6171 90.4902 69.61C90.6142 69.6029 90.7363 69.5994 90.8571 69.5994C90.9779 69.5994 91.1019 69.6029 91.2293 69.61C91.3568 69.6171 91.4843 69.6313 91.6122 69.6527V77.2458C91.2786 77.3453 90.9402 77.4213 90.5964 77.4746C90.2522 77.5279 89.836 77.5541 89.3469 77.5541C88.9712 77.5541 88.6114 77.5026 88.2676 77.4C87.9234 77.2974 87.6204 77.1339 87.3584 76.9105C87.0959 76.6871 86.8884 76.3983 86.7361 76.0439C86.5833 75.6894 86.5073 75.2568 86.5073 74.7465C86.5073 74.3423 86.5731 73.9612 86.7041 73.6032C86.8351 73.2451 87.023 72.9351 87.2678 72.6726C87.5125 72.4105 87.8083 72.2031 88.1557 72.0503C88.503 71.898 88.8894 71.8216 89.315 71.8216C89.4429 71.8216 89.5757 71.8269 89.7138 71.8376C89.852 71.8482 89.9852 71.8713 90.1127 71.9069V69.6522V69.6527ZM90.1127 73.0666C89.971 73.0311 89.8555 73.008 89.7671 72.9973C89.6783 72.9866 89.5668 72.9813 89.4322 72.9813C89.1981 72.9813 88.9943 73.0293 88.8206 73.1248C88.6469 73.2203 88.5035 73.3482 88.3897 73.5077C88.276 73.6671 88.193 73.855 88.1397 74.0713C88.0864 74.2876 88.0597 74.5128 88.0597 74.7465C88.0597 75.0374 88.0953 75.2835 88.1663 75.4856C88.2369 75.6877 88.3347 75.8489 88.4586 75.9693C88.5825 76.0901 88.7295 76.1767 88.9001 76.23C89.0702 76.2833 89.2545 76.3095 89.4531 76.3095C89.5735 76.3095 89.6832 76.3042 89.7827 76.2935C89.8817 76.2829 89.9914 76.2602 90.1123 76.2242V73.0657L90.1127 73.0666Z" fill="#727373"/>
<path d="M93.0796 77.4265C93.037 77.1645 93.0161 76.9055 93.0161 76.6501C93.0161 76.3947 93.0374 76.1326 93.0796 75.863C93.3417 75.8204 93.6006 75.7991 93.856 75.7991C94.1114 75.7991 94.3735 75.8204 94.6431 75.863C94.6858 76.1326 94.7066 76.3912 94.7066 76.6395C94.7066 76.902 94.6853 77.164 94.6431 77.4265C94.3735 77.4692 94.115 77.4905 93.8667 77.4905C93.6042 77.4905 93.3417 77.4692 93.0796 77.4265Z" fill="#727373"/>
<path d="M68.5671 4.93372C69.3564 4.93372 70 5.57476 70.0005 6.36142C70.0014 7.15341 69.3573 7.79579 68.5627 7.79579C67.7703 7.79579 67.1302 7.15208 67.1311 6.35565C67.132 5.57299 67.7778 4.93327 68.5671 4.93372ZM67.3519 6.36409C67.351 7.02822 67.8946 7.57515 68.556 7.57604C69.2325 7.57648 69.7784 7.03843 69.7797 6.36941C69.7811 5.69862 69.2374 5.15524 68.5649 5.15391C67.8978 5.15258 67.3527 5.6964 67.3519 6.36409Z" fill="black"/>
<path d="M68.1247 6.365C68.1247 6.18609 68.1247 6.00719 68.1247 5.82828C68.1247 5.74837 68.1682 5.70442 68.2477 5.70442C68.3535 5.70442 68.4592 5.70398 68.5649 5.70442C68.7674 5.70531 68.942 5.83893 68.9926 6.03071C69.0442 6.22472 68.9615 6.42449 68.7852 6.52571C68.7585 6.54125 68.759 6.55012 68.7763 6.57276C68.8443 6.66066 68.9109 6.7499 68.9771 6.83913C69.0215 6.89862 69.0153 6.96387 68.9629 7.00338C68.9105 7.04245 68.8452 7.03002 68.8008 6.97098C68.7101 6.85111 68.62 6.73081 68.5302 6.6105C68.5165 6.5923 68.5027 6.58297 68.4792 6.58475C68.4472 6.58697 68.4148 6.58786 68.3828 6.58475C68.349 6.5812 68.3441 6.5954 68.3446 6.6247C68.3464 6.72104 68.3455 6.81737 68.345 6.91371C68.345 6.96077 68.3228 6.99539 68.2806 7.01537C68.2393 7.0349 68.1998 7.02825 68.1647 6.99983C68.1349 6.97586 68.1243 6.94345 68.1243 6.90572C68.1247 6.72592 68.1243 6.54568 68.1243 6.36589L68.1247 6.365ZM68.3455 6.14481C68.3455 6.20873 68.3459 6.27311 68.3455 6.33703C68.3455 6.35612 68.3472 6.36589 68.3708 6.36544C68.4383 6.36367 68.5063 6.36633 68.5738 6.36456C68.6919 6.36145 68.7861 6.26378 68.787 6.14658C68.7879 6.02761 68.6933 5.92816 68.5738 5.92506C68.5063 5.92328 68.4383 5.9255 68.3708 5.92417C68.3472 5.92372 68.345 5.93349 68.3455 5.95258C68.3464 6.01651 68.3455 6.08088 68.3455 6.14481Z" fill="black"/>
</svg>
